<?xml version="1.0" encoding="utf-8"?>
<!-- Generator: Adobe Illustrator 17.1.0, SVG Export Plug-In . SVG Version: 6.00 Build 0)  -->
<!DOCTYPE svg PUBLIC "-//W3C//DTD SVG 1.1//EN" "http://www.w3.org/Graphics/SVG/1.1/DTD/svg11.dtd">
<svg version="1.1" id="Layer_1" xmlns="http://www.w3.org/2000/svg" xmlns:xlink="http://www.w3.org/1999/xlink" x="0px" y="0px"
	 viewBox="0 0 362.8 449.7" enable-background="new 0 0 362.8 449.7" xml:space="preserve">
<path fill="#AE3736" d="M30.8,60.4c-1.3,0-2.4-0.2-3.4-0.5c-7.3-2-10.9-6.1-10.9-12.3c0-8,5-17.2,15-27.6c10-10.5,19-15.7,27-15.7
	c2.6,0,4.7,0.7,6.4,2.1c1.6,1.4,2.5,3.2,2.5,5.2c0,6.4-4.8,12.5-14.4,18.3c-9.6,5.8-17.4,8.7-23.5,8.7c-0.9,0-1.7-0.1-2.4-0.3
	c-1.7,3.1-2.6,6.3-2.6,9.7c0,5.9,2.8,8.9,8.4,8.9S45.8,53,54.8,45.4c6.9-5.6,12.9-11.5,17.7-17.7c1-1.4,1.9-2,2.6-2
	c0.7,0,1.1,0.3,1.1,1c0,0.7-0.5,1.7-1.4,2.9C68.8,37.6,61.4,44.8,52.8,51C44.1,57.3,36.8,60.4,30.8,60.4z M63,11.3
	c0-1.4-1.4-2-4.4-2s-7,2.2-12.4,6.7C39.1,21.8,33.5,28,29.6,34.5c0.7,0.2,1.4,0.3,2.2,0.3c4.3,0,10.1-2.3,17.3-6.9
	c7.2-4.6,11.7-9.6,13.6-15.1C62.9,12.2,63,11.7,63,11.3z"/>
<path fill="#AE3736" d="M147.5,56.1c-7.7,0-11.6-3.6-11.6-10.7c0-4.1,1.8-9.7,5.5-16.8c3.6-7.1,7.4-13.1,11.4-18
	c-7.1,3.4-15.2,9.6-24.4,18.5c-9.2,8.9-15.6,18.3-19.3,28.1c-0.6,0.9-1.5,1.4-2.9,1.4c-2.7,0-4.1-1.5-4.1-4.6
	c1.1-6.3,3.7-13.4,7.7-21.5c1.3-2.6,4.9-10.2,11.1-22.9c-8.9,5.8-16.4,12-22.6,18.7C92,34.9,86.3,41.6,81,48.3
	c-5.3,6.7-8.3,10.1-9,10.1c-1.5,0-2.8-0.7-3.8-2c-1.1-1.4-1.6-2.7-1.6-4.1c0-2,3-9.6,8.9-22.5L65.2,40.4c-2.5,2.5-4.1,3.8-4.7,3.8
	c-0.6,0-0.9-0.4-0.9-1.1c0-0.7,0.5-1.6,1.4-2.5c4.2-4.2,8-8.4,11.3-12.6c3.3-4.2,8.8-11.7,16.4-22.5c1.3-1.7,3-2.6,5.3-2.6
	c2.3,0,3.4,1.1,3.4,3.2c0,0.8-3,6.3-9,16.6c-6,10.3-9.4,16.8-10.1,19.4c4.7-5.1,11.7-12,21-20.6c14-13,23.2-19.5,27.6-19.5
	c1.4,0,2.6,0.4,3.8,1.2c1.1,0.8,1.7,1.7,1.7,2.6c0,1-2.2,5.3-6.7,12.9c-4.3,7.8-6.7,12.5-7.2,14c12.6-10.6,18.9-15.9,18.9-16
	c10.7-8.3,18.4-12.5,23-12.5c1.4,0,2.6,0.4,3.8,1.3c1.2,0.9,1.8,1.8,1.8,3c0,0.2-3.7,5-11.1,14.4c-7.4,9.4-11.5,17.1-12.5,23.1
	c-0.2,2,0.2,3.6,1.2,4.6c1,1,2.9,1.5,5.5,1.5c2.7,0,6.6-1.8,11.8-5.5c5.2-3.7,10.4-8.7,15.8-14.9c2-2.3,3.4-3.4,4.2-3.4
	c0.7,0,1.1,0.3,1.1,0.9c0,0.8-0.5,1.7-1.5,2.7c-5.6,6.7-11.6,12.4-18,17.1C156.1,53.8,151.1,56.1,147.5,56.1z"/>
<path fill="#AE3736" d="M255.1,56.1c-7.7,0-11.6-3.6-11.6-10.7c0-4.1,1.8-9.7,5.5-16.8c3.6-7.1,7.4-13.1,11.4-18
	c-7.1,3.4-15.2,9.6-24.4,18.5c-9.2,8.9-15.6,18.3-19.3,28.1c-0.6,0.9-1.5,1.4-2.9,1.4c-2.7,0-4.1-1.5-4.1-4.6
	c1.1-6.3,3.7-13.4,7.7-21.5c1.3-2.6,4.9-10.2,11.1-22.9c-8.9,5.8-16.4,12-22.6,18.7c-6.2,6.7-11.9,13.3-17.2,20
	c-5.3,6.7-8.3,10.1-9,10.1c-1.5,0-2.8-0.7-3.8-2c-1.1-1.4-1.6-2.7-1.6-4.1c0-2,3-9.6,8.9-22.5l-10.2,10.7c-2.5,2.5-4.1,3.8-4.7,3.8
	c-0.6,0-0.9-0.4-0.9-1.1c0-0.7,0.5-1.6,1.4-2.5c4.2-4.2,8-8.4,11.3-12.6c3.3-4.2,8.8-11.7,16.4-22.5c1.3-1.7,3-2.6,5.3-2.6
	c2.3,0,3.4,1.1,3.4,3.2c0,0.8-3,6.3-9,16.6c-6,10.3-9.4,16.8-10.1,19.4c4.7-5.1,11.7-12,21-20.6c14-13,23.2-19.5,27.6-19.5
	c1.4,0,2.6,0.4,3.8,1.2c1.1,0.8,1.7,1.7,1.7,2.6c0,1-2.2,5.3-6.7,12.9c-4.3,7.8-6.7,12.5-7.2,14c12.6-10.6,18.9-15.9,18.9-16
	c10.7-8.3,18.4-12.5,23-12.5c1.4,0,2.6,0.4,3.8,1.3c1.2,0.9,1.8,1.8,1.8,3c0,0.2-3.7,5-11.1,14.4c-7.4,9.4-11.5,17.1-12.5,23.1
	c-0.2,2,0.2,3.6,1.2,4.6c1,1,2.9,1.5,5.5,1.5c2.7,0,6.6-1.8,11.8-5.5c5.2-3.7,10.4-8.7,15.8-14.9c2-2.3,3.4-3.4,4.2-3.4
	c0.7,0,1.1,0.3,1.1,0.9c0,0.8-0.5,1.7-1.5,2.7c-5.6,6.7-11.6,12.4-18,17.1C263.8,53.8,258.8,56.1,255.1,56.1z"/>
<path fill="#AE3736" d="M338.1,7.2l2.4-0.5c1.3,0,2.4,0.5,3.6,1.5c1.1,1,1.7,1.8,1.7,2.4c0,0.6-3.5,6.1-10.6,16.5
	c-7.1,10.4-10.6,17.7-10.6,21.8c0,0.3,0.1,0.7,0.2,1c0.6,2.6,1.8,3.9,3.8,3.9c5.9,0,16.7-9.8,32.4-29.3c0.3-0.5,0.7-0.7,1.2-0.7
	c0.5,0,0.7,0.4,0.7,1.3c0,0.9-0.5,2-1.5,3.3c-14.6,19.5-25.7,29.2-33.3,29.2c-1,0-2-0.2-2.9-0.5c-5-1.9-7.5-5.7-7.5-11.3
	c0-1.9,0.2-3.9,0.7-5.8l-10.6,10.2c-6.7,5.9-11.6,8.9-14.6,8.9c-3,0-5.9-1-8.6-2.9c-3.1-2.3-4.6-5.3-4.6-9c0-8.3,5.8-18.2,17.4-29.8
	C308.9,5.8,319.5,0,329.2,0c3.8,0,6.3,1.3,7.5,3.9c0.3,0.9,0.6,1.7,0.9,2.3C337.8,6.9,337.9,7.2,338.1,7.2z M287,49.1
	c0,4.1,1.4,6.1,4.3,6.1c6.6,0,15.6-7.2,27-21.7l18.1-24.9c-0.9-1.6-2.4-2.4-4.4-2.4c-6.9,0-16.2,5.4-27.6,16.1
	C292.8,33.2,287,42.1,287,49.1z"/>
<path fill="#AE3736" d="M57.5,396.2c12.7-20.7,21.6-31.1,26.6-31.1c0.8,0,1.9,0.3,3.3,0.8c1.4,0.5,2.1,1.3,2.1,2.3
	c0,0.6-0.3,1.3-0.9,2.2c-9.1,11.2-15.9,19.5-20.3,25.1c-13.4,17-20.8,29.1-22.2,36.5c-0.3,1.6-0.5,3.2-0.5,4.8
	c0,5.1,2.1,7.7,6.3,7.7c8.4,0,19.4-7.8,32.9-23.4c1.1-1.1,2.1-1.8,2.9-2c0.8-0.2,1.2,0,1.2,0.6c0,0.6-0.3,1.3-1,2
	c-13.2,15.8-24.9,24.6-35.1,26.4c-0.6,0.1-1.4,0.2-2.4,0.2c-3.5,0-6.2-1.2-7.9-3.7c-1.8-2.4-2.6-5.1-2.6-7.9c0-3.2,0.6-6.7,1.9-10.6
	L28,440c-6.3,5.8-11.2,8.7-14.8,8.7c-3.6,0-6.6-1-9-2.9c-2.8-2.2-4.3-5.2-4.3-9c0-8.3,5.8-18.2,17.4-29.8
	c11.6-11.5,22.2-17.3,31.9-17.3c3.2,0,5.4,0.9,6.7,2.6C56.4,392.8,56.9,394.1,57.5,396.2z M7.2,438.8c0,4.1,1.4,6.1,4.3,6.1
	c4.9,0,13-6.7,24.4-20.1c2-2.4,8.9-11.3,20.5-26.8c-0.8-1.4-2.2-2-4.1-2c-7.1,0-16.3,5.4-27.8,16.1C12.9,422.9,7.2,431.8,7.2,438.8z
	"/>
<path fill="#AE3736" d="M137.9,396.8l2.4-0.5c1.3,0,2.4,0.5,3.6,1.5c1.1,1,1.7,1.8,1.7,2.4c0,0.6-3.5,6.1-10.6,16.5
	c-7.1,10.4-10.6,17.7-10.6,21.8c0,0.3,0.1,0.7,0.2,1c0.6,2.6,1.8,3.9,3.8,3.9c5.9,0,16.7-9.8,32.4-29.3c0.3-0.5,0.7-0.7,1.2-0.7
	c0.5,0,0.7,0.4,0.7,1.3c0,0.9-0.5,2-1.5,3.3c-14.6,19.5-25.7,29.2-33.3,29.2c-1,0-2-0.2-2.9-0.5c-5-1.9-7.5-5.7-7.5-11.3
	c0-1.9,0.2-3.9,0.7-5.8l-10.6,10.2c-6.7,5.9-11.6,8.9-14.6,8.9c-3,0-5.9-1-8.6-2.9c-3.1-2.3-4.6-5.3-4.6-9c0-8.3,5.8-18.2,17.4-29.8
	c11.6-11.5,22.2-17.3,31.9-17.3c3.8,0,6.3,1.3,7.5,3.9c0.3,0.9,0.6,1.7,0.9,2.3C137.6,396.5,137.8,396.8,137.9,396.8z M86.8,438.8
	c0,4.1,1.4,6.1,4.3,6.1c6.6,0,15.6-7.2,27-21.7l18.1-24.9c-0.9-1.6-2.4-2.4-4.4-2.4c-6.9,0-16.2,5.4-27.6,16.1
	C92.6,422.9,86.8,431.8,86.8,438.8z"/>
<path fill="#AE3736" d="M197.8,380.8c3.4,0,6.3,1.1,8.7,3.4c2.4,2.3,3.6,5.5,3.6,9.6c0,9-7.5,20.2-22.4,33.8
	c-12.6,11.4-22.8,18.3-30.5,20.8c-1.3,0-2.9-0.7-4.9-2c-2-1.4-3.1-2.6-3.1-3.8c0-2.5,2.7-11,8.2-25.4c5.5-14.4,9.2-22.5,11.3-24.2
	c0.5-0.5,1.2-0.7,2.2-0.7c1,0,2.1,0.5,3.2,1.6c1.1,1.1,1.8,2.4,1.9,3.8c0,0.1-2.8,6.7-8.4,19.8c-5.6,13.1-8.3,20.9-7.9,23.4
	c4.9-1.5,13.6-7.4,26.2-17.9c12.6-10.5,18.9-19.9,18.9-28.2c0-5-2.5-8.6-7.5-10.9c-0.8-0.3-1.2-0.9-1.2-1.5
	C195.9,381.3,196.5,380.8,197.8,380.8z"/>
<path fill="#AE3736" d="M208.8,449.7c-5.8,0-8.7-3.8-8.7-11.3c0-6.1,3.4-14.6,10.1-25.5c6.7-10.9,12.1-16.4,16.2-16.5
	c1.1,0,2.4,0.5,3.8,1.4c1.4,0.9,2.1,1.8,2.1,2.7c-0.6,0.8-1.3,1.7-2,2.6c-0.8,1-1.7,2-2.6,3.2c-0.9,1.1-2.2,2.8-3.8,4.9
	c-1.6,2.1-3.1,4.1-4.6,6.1c-8.5,11-12.8,18.6-12.8,22.8c0,4.2,1.4,6.2,4.3,6.2c2.4,0,5.6-1.3,9.7-3.9c9.6-5.9,17.1-12.4,22.7-19.5
	c2-2.6,3.4-3.9,4.2-3.9c0.7,0,1.1,0.5,1.1,1.4c0,0.9-1.3,2.7-3.9,5.5c-2.6,2.7-4.7,4.9-6.2,6.5c-1.5,1.6-2.6,2.6-3.2,3.2
	c-0.6,0.5-1.6,1.5-3.2,2.9c-1.5,1.4-2.7,2.4-3.5,3c-0.8,0.6-1.9,1.4-3.4,2.6c-1.5,1.1-2.8,2-3.9,2.5c-1.1,0.5-2.4,1.1-3.9,1.8
	C215,449.2,212.1,449.7,208.8,449.7z M244.6,379.9c1.5,1.1,2.3,2.4,2.3,3.8c0,1.5-0.7,2.8-2.1,3.8c-1.4,1.1-3,1.6-4.7,1.6
	s-3.3-0.6-4.7-1.9c-1.4-1.3-2.1-2.7-2.1-4.3c0-3.2,2.2-4.8,6.5-4.8C241.4,378.2,243.1,378.8,244.6,379.9z"/>
<path fill="#AE3736" d="M297.4,396.2c12.7-20.7,21.6-31.1,26.6-31.1c0.8,0,1.9,0.3,3.3,0.8c1.4,0.5,2.1,1.3,2.1,2.3
	c0,0.6-0.3,1.3-0.9,2.2c-9.1,11.2-15.9,19.5-20.3,25.1c-13.4,17-20.8,29.1-22.2,36.5c-0.3,1.6-0.5,3.2-0.5,4.8
	c0,5.1,2.1,7.7,6.3,7.7c8.4,0,19.4-7.8,32.9-23.4c1.1-1.1,2.1-1.8,2.9-2c0.8-0.2,1.2,0,1.2,0.6c0,0.6-0.3,1.3-1,2
	c-13.2,15.8-24.9,24.6-35.1,26.4c-0.6,0.1-1.4,0.2-2.4,0.2c-3.5,0-6.2-1.2-7.9-3.7c-1.8-2.4-2.6-5.1-2.6-7.9c0-3.2,0.6-6.7,1.9-10.6
	L267.9,440c-6.3,5.8-11.2,8.7-14.8,8.7c-3.6,0-6.6-1-9-2.9c-2.8-2.2-4.3-5.2-4.3-9c0-8.3,5.8-18.2,17.4-29.8
	c11.6-11.5,22.2-17.3,31.9-17.3c3.2,0,5.4,0.9,6.7,2.6C296.3,392.8,296.8,394.1,297.4,396.2z M247.1,438.8c0,4.1,1.4,6.1,4.3,6.1
	c4.9,0,13-6.7,24.4-20.1c2-2.4,8.9-11.3,20.5-26.8c-0.8-1.4-2.2-2-4.1-2c-7.1,0-16.3,5.4-27.8,16.1
	C252.8,422.9,247.1,431.8,247.1,438.8z"/>
<g>
	<path fill="#FFFFFF" d="M197.5,174.3c10.5,0,15.8,2.2,15.8,6.5c0,1.1-0.4,2.1-1.1,2.8c-2.4,4.1-7.8,6.2-15.9,6.2
		c-8.2,0-15.6-2.4-22.1-7.3c-10.2,3-22,9.4-35.5,19.2c-21.1,15.6-31.6,30.9-31.6,46c0,16.7,11.4,26,34.1,27.9
		c4.5-27.8,18-48.7,40.6-62.6c7.3-4.7,15.2-8,23.7-10c8.5-2,14.2-3.3,17.3-3.9c3.1-0.7,8.4-1.6,15.8-2.8c7.4-1.2,11.7-1.9,12.8-2.1
		c17.5-3,28.7-6.4,33.7-10.2c5-3.8,7.5-7.3,7.5-10.7c0-0.9-0.1-2-0.4-3.1c-0.3-1.1,0-1.8,0.7-2c0.7-0.2,1.6,0.1,2.5,0.8
		c1.5,2.1,2.3,4.6,2.3,7.6c0,3-1.9,6.7-5.6,11c-5.6,5.6-13.4,9.6-23.4,11.8c-3.8,0.9-8.8,2-15.1,3.2c-6.3,1.2-10.9,2.2-13.7,3
		c3.6,3.4,5.4,8.5,5.4,15.2c0,13.9-8.3,27.5-24.8,40.9c-18.2,14.7-42.7,22-73.3,22c-0.2,1.5-0.3,3.9-0.3,7
		c0,13.2,4.4,23.5,13.1,31.2c8.7,7.6,19.8,11.4,33.1,11.4c4.7,0,8.7-1.6,12.1-4.7c3.4-3.1,5.1-6.6,5.1-10.6c0-1.3-0.4-2.8-1.1-4.5
		c-0.8-1.7,0-2.5,2.1-2.5c2.2,0,3.2,2.5,3.2,7.5c0,5-2.2,9.4-6.5,13.3c-4.3,3.9-9.3,5.8-14.9,5.8c-14.7,0-26.9-4-36.7-12.1
		c-11.1-8.8-16.6-20.4-16.6-34.7c0-3.2,0.1-5.6,0.3-7.3c-16.4-1.5-28.8-5.6-37.2-12.4c-7.7-6.6-11.6-13.8-11.6-21.7
		c0-18.2,13.9-35.6,41.7-52.2c13-7.9,25.7-13.8,38.1-17.8c-5.3-5.8-7.9-13.4-7.9-22.8c0-4.9,1.1-8.9,3.4-12.1
		c6.2-8.8,15.6-15.9,28.2-21.2c14.8-6.6,29.9-9.9,45.1-9.9c20.1,0,30,6.3,29.6,18.9c-0.4,5.5-2.7,10.2-6.9,14.2
		c-4.2,4-8.9,6.1-14,6.1c-5.1,0-7.6-1.3-7.6-3.9c0-1.9,1.2-2.8,3.7-2.8l4.8,0.8c2.6,0,5.2-1.6,7.8-4.8c2.5-3.2,3.8-6.4,3.8-9.6
		c0-5.1-2.9-8.7-8.7-11c-3.8-1.3-7.3-2-10.7-2c-15.8,0-29,3.3-39.5,9.9c-10.5,6.6-18.2,13.9-23.1,22c-2.8,4.7-4.2,9.6-4.2,14.7
		c0,5.1,1.1,8.9,3.4,11.6C185.4,175.4,191.8,174.3,197.5,174.3z M235.8,218.9c0-8.3-3.6-12.4-10.7-12.4c-2.3,0-6.9,0.8-13.8,2.5
		c-36.3,13.5-57.4,35.8-63.5,66.8c4.1,0,8.3-0.3,12.4-0.8c24.3-2.6,43.5-10.3,57.8-23.1C229.9,241.2,235.8,230.2,235.8,218.9z
		 M204.8,181.7c0-1.7-2.5-2.5-7.5-2.5c-5,0-10.3,0.6-15.9,1.7c4.7,3,9.8,4.5,15.2,4.5C202.1,185.3,204.8,184.1,204.8,181.7z"/>
</g>
</svg>
